<svg xmlns="http://www.w3.org/2000/svg"><defs><font id="icomoon" horiz-adv-x="1024"><font-face ascent="960" descent="-64" units-per-em="1024"/><glyph horiz-adv-x="512"/><glyph d="M1024 448.003c0-141.386-57.308-269.386-149.962-362.04S653.384-63.997 512-63.997c-141.384 0-269.385 57.306-362.039 149.96S0 306.617 0 448.003c0 141.384 57.308 269.384 149.961 362.038S370.616 960.002 512 960.002s269.384-57.308 362.038-149.961S1024 589.387 1024 448.003z" unicode=""/><glyph d="M818.601 574.564c-1.439 32.645-6.72 55.089-14.282 74.537-7.8 20.641-19.804 39.124-35.528 54.487-15.365 15.603-33.969 27.728-54.372 35.407-19.561 7.562-41.887 12.842-74.532 14.281-32.888 1.561-43.331 1.922-126.746 1.922-83.418 0-93.857-.361-126.625-1.8-32.645-1.439-55.089-6.723-74.532-14.281-20.649-7.801-39.13-19.804-54.492-35.529-15.604-15.363-27.724-33.966-35.408-54.372-7.562-19.564-12.841-41.887-14.281-74.532-1.561-32.888-1.922-43.331-1.922-126.746 0-83.418.361-93.857 1.8-126.625 1.439-32.645 6.723-55.089 14.286-74.537 7.802-20.641 19.921-39.124 35.525-54.487 15.363-15.603 33.966-27.727 54.369-35.407 19.566-7.562 41.887-12.841 74.537-14.282 32.763-1.444 43.208-1.8 126.625-1.8 83.415 0 93.857.356 126.625 1.8 32.645 1.441 55.089 6.72 74.532 14.282a157.157 157.157 0 0 1 89.9 89.894c7.557 19.566 12.841 41.892 14.28 74.537 1.441 32.768 1.802 43.208 1.802 126.625 0 83.415-.123 93.857-1.562 126.625zm-55.329-250.849c-1.321-30.006-6.362-46.211-10.563-57.011-10.324-26.767-31.567-48.01-58.332-58.335-10.803-4.201-27.123-9.239-57.011-10.557-32.407-1.444-42.125-1.8-124.104-1.8-81.976 0-91.817.356-124.106 1.8-30.006 1.318-46.208 6.356-57.011 10.557-13.32 4.923-25.444 12.726-35.284 22.927-10.202 9.964-18.004 21.965-22.927 35.284-4.201 10.803-9.239 27.128-10.557 57.011-1.444 32.407-1.8 42.13-1.8 124.109 0 81.976.356 91.817 1.8 124.101 1.318 30.006 6.356 46.208 10.557 57.011 4.923 13.325 12.726 25.444 23.05 35.29 9.956 10.202 21.96 18.004 35.284 22.922 10.801 4.201 27.126 9.242 57.011 10.563 32.404 1.439 42.13 1.8 124.101 1.8 82.099 0 91.817-.361 124.106-1.8 30.006-1.321 46.211-6.362 57.011-10.563 13.32-4.918 25.444-12.721 35.287-22.922 10.202-9.964 18.002-21.965 22.925-35.29 4.201-10.803 9.242-27.123 10.563-57.011 1.441-32.407 1.802-42.125 1.802-124.101 0-81.979-.361-91.579-1.802-123.986z" unicode=""/><glyph d="M513.137 605.77c-87.135 0-157.829-70.692-157.829-157.832 0-87.137 70.694-157.829 157.829-157.829 87.14 0 157.832 70.692 157.832 157.829 0 87.14-70.692 157.832-157.832 157.832zm0-260.211c-56.527 0-102.38 45.847-102.38 102.38 0 56.535 45.852 102.382 102.38 102.382 56.532 0 102.382-45.847 102.382-102.382 0-56.532-45.85-102.38-102.382-102.38z" unicode=""/><glyph d="M714.061 612.009c0-20.347-16.499-36.846-36.851-36.846-20.349 0-36.846 16.499-36.846 36.846 0 20.355 16.497 36.846 36.846 36.846 20.352 0 36.851-16.492 36.851-36.846z" unicode=""/><glyph d="M1024 448c0-141.384-57.308-269.384-149.962-362.038S653.384-64 512-64C370.616-64 242.615-6.692 149.961 85.962S0 306.616 0 448c0 141.384 57.308 269.385 149.961 362.039S370.616 960 512 960s269.384-57.308 362.038-149.961S1024 589.384 1024 448z" unicode=""/><glyph d="M819.046 140.797v.026h.154v225.331c0 110.234-23.731 195.149-152.602 195.149-61.952 0-103.526-33.997-120.499-66.227h-1.792v55.936H422.118V140.823H549.35v203.11c0 53.478 10.138 105.19 76.365 105.19 65.254 0 66.227-61.03 66.227-108.621V140.796h127.104z" unicode=""/><glyph d="M214.938 550.991h127.386V140.802H214.938v410.189z" unicode=""/><glyph d="M278.579 755.2c-40.73 0-73.779-33.05-73.779-73.779s33.05-74.47 73.779-74.47c40.73 0 73.779 33.741 73.779 74.47-.026 40.73-33.075 73.779-73.779 73.779z" unicode=""/><glyph d="M1024 448c0-141.384-57.308-269.384-149.962-362.038S653.384-64 512-64C370.616-64 242.615-6.692 149.961 85.962S0 306.616 0 448c0 141.384 57.308 269.385 149.961 362.039S370.616 960 512 960s269.384-57.308 362.038-149.961S1024 589.384 1024 448z" unicode=""/><glyph d="M614.323 653.184h56.09v97.69c-9.677 1.331-42.957 4.326-81.715 4.326-80.87 0-136.269-50.867-136.269-144.358V524.8h-89.242V415.59h89.242V140.8h109.414v274.765h85.632l13.594 109.21h-99.251v75.238c.026 31.565 8.525 53.171 52.506 53.171z" unicode=""/><glyph d="M1024 448c0-141.384-57.308-269.384-149.962-362.038S653.384-64 512-64C370.616-64 242.615-6.692 149.961 85.962S0 306.616 0 448c0 141.384 57.308 269.385 149.961 362.039S370.616 960 512 960s269.384-57.308 362.038-149.961S1024 589.384 1024 448z" unicode=""/><glyph d="M819.2 638.502c-22.848-10.022-47.194-16.666-72.576-19.891 26.112 15.59 46.042 40.09 55.411 69.619-24.346-14.515-51.226-24.768-79.872-30.49-23.117 24.614-56.064 39.859-92.006 39.859-69.734 0-125.875-56.602-125.875-125.99 0-9.984.845-19.584 2.918-28.723-104.717 5.107-197.376 55.296-259.622 131.75-10.867-18.854-17.242-40.435-17.242-63.667 0-43.622 22.464-82.291 55.949-104.678-20.237.384-40.09 6.259-56.909 15.514v-1.382c0-61.21 43.661-112.051 100.915-123.763-10.253-2.803-21.427-4.147-33.024-4.147-8.064 0-16.205.461-23.846 2.15 16.32-49.882 62.63-86.554 117.696-87.744-42.854-33.523-97.267-53.722-156.173-53.722-10.33 0-20.237.461-30.144 1.728 55.795-35.981 121.92-56.525 193.229-56.525 231.782 0 358.502 192 358.502 358.426 0 5.568-.192 10.944-.461 16.282 24.998 17.741 46.003 39.898 63.13 65.395z" unicode=""/><glyph d="M1023.17 815.23a17.088 17.088 0 0 1-13.773 11.606l-61.133 8.892-27.358 55.399c-5.734 11.674-24.866 11.674-30.6 0l-27.358-55.399-61.136-8.894a17.105 17.105 0 0 1-13.789-11.606c-1.997-6.178-.342-12.97 4.317-17.494l44.256-43.13-10.445-60.894a17.106 17.106 0 0 1 6.776-16.693c5.309-3.858 12.237-4.334 17.989-1.296l54.682 28.758 54.683-28.758a17.085 17.085 0 0 1 7.954-1.962 17.02 17.02 0 0 1 10.037 3.259 17.042 17.042 0 0 1 6.776 16.693l-10.443 60.894 44.254 43.13a17.12 17.12 0 0 1 4.312 17.494zm-78.813-42.462a17.07 17.07 0 0 1-4.899-15.106l6.11-35.651-32.016 16.827a17.022 17.022 0 0 1-7.955 1.963 17.08 17.08 0 0 1-7.954-1.963l-32.018-16.827 6.109 35.651c.957 5.531-.888 11.179-4.898 15.106l-25.925 25.258 35.806 5.206c5.565.802 10.36 4.3 12.853 9.336l16.008 32.426 16.008-32.426a17.066 17.066 0 0 1 12.853-9.336l35.806-5.206-25.89-25.258z" unicode=""/><glyph d="M836.272 303.29h-34.136v-34.134h34.136v34.134z" unicode=""/><glyph d="M836.272 235.021h-34.136v-34.134h34.136v34.134z" unicode=""/><glyph d="M870.406 269.155h-34.134v-34.134h34.134v34.134z" unicode=""/><glyph d="M802.139 269.155h-34.136v-34.134h34.136v34.134z" unicode=""/><glyph d="M716.802 115.552h-34.134V81.419h34.134v34.133z" unicode=""/><glyph d="M716.802 47.286h-34.134V13.15h34.134v34.136z" unicode=""/><glyph d="M750.938 81.419h-34.134V47.283h34.134v34.136z" unicode=""/><glyph d="M682.667 81.419h-34.134V47.283h34.134v34.136z" unicode=""/><glyph d="M512 183.819h-34.134v-34.134H512v34.134z" unicode=""/><glyph d="M512 115.552h-34.134V81.419H512v34.133z" unicode=""/><glyph d="M546.134 149.688H512v-34.134h34.134v34.134z" unicode=""/><glyph d="M477.866 149.688h-34.134v-34.134h34.134v34.134z" unicode=""/><glyph d="M187.728 764.098h-34.134v-34.134h34.134v34.134z" unicode=""/><glyph d="M187.728 695.827h-34.134v-34.134h34.134v34.134z" unicode=""/><glyph d="M221.861 729.962h-34.134v-34.134h34.134v34.134z" unicode=""/><glyph d="M153.593 729.962h-34.134v-34.134h34.134v34.134z" unicode=""/><glyph d="M790.872 506.898c-9.198 12.408-22.698 20.394-38.024 22.546-15.395 2.184-30.586-1.859-42.874-11.264L669.9 487.46l-60.726-45.347-43.451 17.306c77.483 34.765 131.637 112.266 131.637 202.243 0 122.336-99.926 221.87-222.757 221.87s-222.755-99.534-222.755-221.87c0-44.341 13.259-85.573 35.84-120.269l-88.442.768h-.154c-.274 0-.494-.136-.75-.155-1.69-.067-3.346-.41-4.966-.989-.41-.155-.835-.24-1.227-.427-.205-.085-.41-.101-.614-.203l-103.46-51.082c-.018 0-.034 0-.034-.016l-60.589-29.136a13.22 13.22 0 0 1-2.014-1.126c-24.15-16.075-32.376-47.65-19.148-73.454 7.048-13.722 19.046-23.827 33.793-28.451a57.863 57.863 0 0 1 17.254-2.645c9.268 0 18.45 2.269 26.862 6.757l44.409 23.621 72.448 37.411 43.419.256L70.34 249.223c-.016-.018-.034-.018-.052-.034l-42.839-42.667c-10.12-10.07-15.684-23.432-15.684-37.685 0-14.234 5.564-27.63 15.684-37.718 10.394-10.342 24.064-15.53 37.735-15.53 13.688 0 27.34 5.187 37.768 15.53l42.053 41.883 55.706 41.592 28.827-28.706-56.373-56.133c-.016-.019-.034-.019-.053-.035l-42.838-42.666c-10.12-10.07-15.684-23.432-15.684-37.685 0-14.234 5.564-27.63 15.684-37.718C140.668 1.309 154.356-3.88 168.027-3.88s27.358 5.189 37.768 15.531l111.411 110.933c.019.019.019.035.035.053l32.307 32-.12.12c.205.205.494.275.701.494l165.31 181.062 111.072-15.803c.802-.12 1.603-.171 2.406-.171 2.066 0 4.061.494 5.99 1.229.563.203 1.058.478 1.587.75.614.307 1.262.477 1.845.869l102.827 68.267c.376.256.579.667.938.939.41.323.922.459 1.296.819l40.686 38.11c21.171 19.837 24.088 52.331 6.782 75.576zM68.173 391.355c-5.546-2.97-11.844-3.566-17.868-1.656-5.974 1.861-10.82 5.941-13.654 11.453-5.154 10.035-2.168 22.256 6.86 28.859l42.037 20.226 14.37-42.002-31.744-16.88zm111.907 58.487-49.544-25.6-14.044 41.064 64.856 32.019-1.267-47.483zm483.182 211.854c0-29.389-7.014-57.107-19.166-81.904l-133.805 60.774c-1.4 18.347-10.922 34.406-25.224 44.41l46.848 155.53c76.086-24.202 131.347-95.183 131.347-178.81zm-377.246 0c0 103.51 84.618 187.736 188.622 187.736 8.091 0 16.01-.682 23.843-1.672l-45.826-152.119c-.613.018-1.194.189-1.826.189-33.042 0-59.923-26.795-59.923-59.736 0-32.938 26.882-59.734 59.923-59.734 22.221 0 41.421 12.27 51.781 30.227l123.598-56.152c-34.39-46.285-89.432-76.477-151.573-76.477-104.003 0-188.621 84.226-188.621 187.738zm190.603-25.602c0-14.114-11.573-25.6-25.789-25.6s-25.789 11.486-25.789 25.6c0 14.115 11.573 25.602 25.789 25.602s25.789-11.486 25.789-25.602zM78.875 155.32c-7.56-7.493-19.798-7.477-27.34-.018-3.636 3.635-5.632 8.429-5.632 13.533 0 5.086 1.996 9.883 5.632 13.483l30.786 30.67 27.239-27.12-30.684-30.549zM181.718 35.85c-7.56-7.491-19.814-7.51-27.358-.018-3.636 3.635-5.632 8.43-5.632 13.534 0 5.086 1.996 9.882 5.632 13.482l30.806 30.686 27.256-27.12-30.704-30.565zm111.415 111.003c-.019-.016-.035-.016-.053-.034l-56.475-56.32-27.256 27.12 56.422 56.166v.016c.019.018.035.018.053.034 1.28 1.28 2.082 2.816 2.867 4.334.222.445.648.821.837 1.28.53 1.314.614 2.73.819 4.115.102.786.445 1.517.445 2.322 0 1.144-.41 2.251-.648 3.379-.205 1.024-.205 2.067-.598 3.054-.648 1.605-1.758 3.021-2.918 4.405-.323.376-.443.853-.802 1.211h-.018c-.018.016-.018.053-.034.069l-51.424 51.2c-.546.546-1.245.768-1.859 1.229-.904.699-1.774 1.347-2.782 1.843-.971.478-1.962.768-2.986 1.042-1.093.309-2.15.547-3.294.632-1.042.069-2.014-.034-3.054-.154-1.144-.136-2.218-.29-3.328-.648-1.075-.342-2.03-.87-3.019-1.434-.632-.358-1.349-.478-1.947-.922l-56.746-42.362-28.827 28.707 76.768 76.357 139.539-137.237-29.682-29.406zm218.201 224.534c-.494.067-.957-.12-1.451-.086-1.246.069-2.44-.018-3.686-.222-.971-.17-1.893-.357-2.816-.682-1.091-.376-2.082-.888-3.09-1.502-.955-.579-1.826-1.194-2.662-1.962-.41-.358-.904-.53-1.28-.938L346.005 201.333 207.507 337.544l90.659 90.182c6.674 6.656 6.707 17.459.051 24.15-3.362 3.362-7.781 5.018-12.202 5v.016l-70.998-.427.888 51.44 99.33-.854c40.482-41.405 96.939-67.227 159.403-67.227 13.995 0 27.65 1.45 40.944 3.926 1.28-1.024 2.541-2.067 4.147-2.715l77.109-30.72 4.88-24.269 5.701-28.33-96.085 13.67zm129.316-5.701-10.018 49.853 46.285 34.562 30.294-40.21-66.562-44.205zm120.115 90.592-26.811-25.123-29.798 39.562 26.606 20.394c4.965 3.822 11.23 5.376 17.374 4.574 6.178-.87 11.64-4.096 15.36-9.096 6.93-9.336 5.752-22.358-2.731-30.31z" unicode=""/><glyph d="m435.266 366.59-68.574 68.267c-6.638 6.638-17.427 6.638-24.083 0l-68.557-68.267c-3.208-3.226-5.018-7.56-5.018-12.099 0-4.541 1.792-8.893 5.018-12.101l68.557-68.267c3.328-3.31 7.699-4.966 12.051-4.966s8.72 1.656 12.032 4.966l68.574 68.267a17.134 17.134 0 0 1 5.034 12.101c0 4.539-1.81 8.891-5.034 12.099zm-80.607-56.286-44.376 44.187 44.376 44.186 44.39-44.186-44.39-44.187z" unicode=""/><glyph d="m549.256 797.736-8.245-33.146c2.27-.563 55.605-14.456 55.605-68.763h34.134c-.002 64.549-53.301 94.894-81.494 101.909z" unicode=""/><glyph d="M630.752 661.696h-34.134V627.56h34.134v34.136z" unicode=""/><glyph d="M477.618 481.133h34.115v-153.52h-34.115v153.52z" unicode=""/><glyph d="M614.078 412.902h34.115v-85.29h-34.115v85.29z" unicode=""/><glyph d="M341.154 361.728h34.117v-34.115h-34.117v34.115z" unicode=""/><glyph d="M238.808 378.787h34.117v-51.173h-34.117v51.173z" unicode=""/><glyph d="M51.173 54.69h818.771c28.261 0 51.174 22.912 51.174 51.173v68.23c0 28.261-22.914 51.173-51.174 51.173h-17.058v425.386l96.891 91.786c22.488-11.085 49.707-4.355 64.424 15.958 14.726 20.306 12.661 48.267-4.88 66.191s-45.443 20.598-66.074 6.33c-20.622-14.276-27.952-41.337-17.358-64.066l-73.003-69.206V737c0 28.261-22.912 51.173-51.173 51.173H119.404c-28.26 0-51.173-22.912-51.173-51.173V225.267H51.173C22.913 225.267 0 202.355 0 174.094v-68.23c0-28.261 22.913-51.173 51.173-51.173zm921.118 750.539c9.419 0 17.058-7.637 17.058-17.058 0-9.419-7.638-17.058-17.058-17.058-9.421 0-17.058 7.638-17.058 17.058s7.637 17.058 17.058 17.058zm-869.945-68.231c0 9.419 7.638 17.058 17.058 17.058h682.309c9.419 0 17.058-7.638 17.058-17.058v-71.637l-34.115-32.418v69.939c0 9.419-7.638 17.058-17.058 17.058H153.519c-9.42 0-17.058-7.638-17.058-17.058V276.439c0-9.421 7.638-17.058 17.058-17.058h614.079c9.419 0 17.058 7.637 17.058 17.058v309.579l34.115 32.325V225.265H102.346v511.733zm153.52-221.75c-23.078.066-43.344-15.309-49.482-37.555-6.139-22.246 3.365-45.843 23.213-57.621 19.84-11.776 45.118-8.819 61.701 7.23l59.294-29.752c6.888-3.448 15.242-1.832 20.363 3.923l126.043 141.802 123.901-92.843c6.646-4.981 15.926-4.448 21.955 1.258L750.54 553.695V293.498H170.577v392.328H750.54v-85.131l-120.688-114.29-124.942 93.667c-7.096 5.314-17.083 4.315-22.979-2.307L354.157 433.999l-47.768 23.888c.35 2.048.566 4.114.651 6.189 0 28.259-22.914 51.173-51.174 51.173zm17.057-51.173c0-9.421-7.637-17.059-17.058-17.059-9.419 0-17.058 7.638-17.058 17.059 0 9.419 7.638 17.058 17.058 17.058 9.421 0 17.058-7.638 17.058-17.058zM375.27 191.15h170.578v-17.058c0-9.419-7.638-17.058-17.058-17.058H392.328c-9.421 0-17.058 7.638-17.058 17.058v17.058zM34.116 174.093c0 9.421 7.638 17.058 17.058 17.058h289.982v-17.058c0-28.261 22.912-51.173 51.173-51.173h136.462c28.259 0 51.173 22.912 51.173 51.173v17.058h289.981c9.421 0 17.058-7.637 17.058-17.058v-68.23c0-9.421-7.637-17.058-17.058-17.058H51.174c-9.42 0-17.058 7.637-17.058 17.058v68.23z" unicode=""/><glyph d="M1001.493 470.36C1001.439 740.835 782.125 960.055 511.64 960 241.165 959.945 21.945 740.626 22 470.149 22.047 257.095 159.82 68.515 362.781 3.711a19.656 19.656 0 0 1 5.978-.914 21.614 21.614 0 0 1 10.96 3 20.403 20.403 0 0 1 9.062 11.406l123.68 392c33.813.171 61.078 27.726 60.899 61.531-.173 33.813-27.72 61.078-61.531 60.906a60.387 60.387 0 0 1-26.243-6.125l-163.39 163.414c-8.109 7.829-21.024 7.602-28.851-.499-7.642-7.915-7.642-20.446 0-28.36l163.304-163.493c-12.531-25.578-5.366-56.453 17.165-73.89L355.969 49.156C123.079 134.945 3.829 393.281 89.618 626.17c85.789 232.891 344.125 352.141 577.016 266.352s352.139-344.133 266.35-577.016A449.389 449.389 0 0 0 694.195 60.359l-12.734 59.976c-2.328 11.024-13.163 18.07-24.187 15.734a20.508 20.508 0 0 1-9.36-4.742L525.133 21.709c-8.422-7.491-9.171-20.39-1.672-28.813a20.48 20.48 0 0 1 9.062-5.882l156.758-50.032c10.726-3.445 22.219 2.453 25.664 13.187 1.093 3.39 1.274 7 .539 10.485l-12.515 58.851c181.258 76.414 298.944 254.149 298.523 450.853zM511.75 490.765c11.266 0 20.406-9.139 20.406-20.405 0-11.274-9.141-20.406-20.406-20.406-11.274 0-20.406 9.133-20.406 20.406 0 11.266 9.133 20.405 20.406 20.405zm67.212-475.648 69.89 62.344 19.29-90.891-89.179 28.547z" unicode=""/><glyph d="M491.344 858.078v-40.812c0-11.273 9.133-20.406 20.406-20.406 11.266 0 20.406 9.133 20.406 20.406v40.812c0 11.266-9.141 20.406-20.406 20.406-11.274 0-20.406-9.141-20.406-20.406z" unicode=""/><glyph d="M124.031 490.766c-11.273 0-20.406-9.141-20.406-20.406 0-11.274 9.133-20.406 20.406-20.406h40.812c11.274 0 20.406 9.133 20.406 20.406 0 11.266-9.133 20.406-20.406 20.406h-40.812z" unicode=""/><glyph d="M899.459 449.954c11.274 0 20.406 9.133 20.406 20.406 0 11.266-9.133 20.406-20.406 20.406h-40.811c-11.266 0-20.406-9.141-20.406-20.406 0-11.274 9.141-20.406 20.406-20.406h40.811z" unicode=""/><glyph d="M984.741 252.877 714.559 525.039l29.986 147.696a68.07 68.07 0 0 1 24.269-4.659h.205c38.154-.451 69.446 30.112 69.899 68.264s-30.112 69.446-68.264 69.899c-38.154.45-69.446-30.112-69.899-68.265a69.062 69.062 0 0 1 3.992-23.971l-158.72-19.371-258.902 260.25a17.06 17.06 0 0 1-12.05 5.12 17.063 17.063 0 0 1-11.946-4.966l-48.402-48.128c-6.662-6.664-6.662-17.468 0-24.132l26.043-26.419c-100.897-185.533-68.125-415.29 80.624-565.213a16.213 16.213 0 0 1 4.675-3.123 99.103 99.103 0 0 1-1.672-17.51V72.537h-204.8c-47.104-.054-85.278-38.229-85.333-85.333v-34.133c0-9.426 7.642-17.067 17.067-17.067h785.066c9.426 0 17.067 7.642 17.067 17.067v34.133c-.056 47.104-38.229 85.278-85.333 85.333h-204.8v87.741a480.887 480.887 0 0 1 97.552-10.24 475.183 475.183 0 0 1 225.28 57.07l26.181-26.334a17.07 17.07 0 0 1 12.05-5.12c4.48.024 8.77 1.808 11.946 4.966l48.402 48.128c6.662 6.666 6.662 17.469 0 24.133zM744.954 760.542c13.366 13.294 34.979 13.235 48.272-.131s13.235-34.978-.131-48.27a34.137 34.137 0 0 0-24.078-9.933h-.102c-18.85.098-34.054 15.458-33.957 34.31a34.14 34.14 0 0 0 10.064 24.024h-.067zm-40.175-112.145-19.149-94.259-37.616 37.837 56.765 56.422zm-19.387 28.859-61.44-61.082-47.531 47.787 108.971 13.294zM768.131 38.4c28.277 0 51.2-22.923 51.2-51.2v-17.067H68.397V-12.8c0 28.277 22.923 51.2 51.2 51.2h648.534zm-238.934 68.267V72.533H358.53v34.134h170.667zM358.53 140.8v129.707c0 41.403 38.282 75.093 85.334 75.093s85.333-33.69 85.333-75.093V140.8H358.53zm204.801 54.272v75.435c0 60.227-53.59 109.226-119.467 109.226-42.595.653-82.424-21.027-104.995-57.155-129.846 136.762-159.086 340.646-72.915 508.388l595.259-598.671a442.268 442.268 0 0 0-297.882-37.222zm361.25 21.88L250.754 894.737l24.15 24.064 253.917-255.352c.12 0 .189-.222.309-.307l419.669-422.126-24.218-24.064z" unicode=""/><glyph d="M444.018 311.467h-.154c-28.277.043-51.234-22.846-51.277-51.123s22.846-51.234 51.123-51.277h.154c28.277-.043 51.234 22.846 51.277 51.123.042 28.277-22.846 51.234-51.123 51.277zm11.947-63.301a17.078 17.078 0 0 0-12.101-4.966c-9.426.05-17.026 7.73-16.978 17.155a17.086 17.086 0 0 0 5.03 12.013 17.078 17.078 0 0 0 11.947 4.966c9.426-.05 17.026-7.73 16.978-17.155a17.086 17.086 0 0 0-5.03-12.013h.154z" unicode=""/><glyph d="M995.25 454.478c-5.167 6.876-7.638 15-7.052 23.18v33.607c0 10.302 2.338 18.131 7.012 23.487s12.705 8.022 24.088 8c10.697 0 18.291-2.28 22.781-6.838 4.898-5.816 7.281-12.929 6.735-20.103v-7.898h-19.136v8a40.697 40.697 0 0 1-.554 7.829c-.276 1.772-1.239 3.412-2.733 4.65-1.965 1.335-4.44 1.982-6.934 1.812-2.622.169-5.221-.513-7.289-1.914-1.667-1.372-2.779-3.17-3.17-5.128a38.882 38.882 0 0 1-.753-8.307v-40.787c-.301-3.934.542-7.872 2.456-11.453.952-1.213 2.274-2.173 3.819-2.776s3.254-.826 4.936-.642c2.452-.175 4.884.489 6.775 1.846 1.559 1.336 2.562 3.078 2.853 4.957.447 2.707.646 5.439.593 8.171v8.273h19.136v-7.555c.538-7.478-1.787-14.902-6.616-21.128-4.397-4.991-11.885-7.487-22.899-7.487s-19.334 2.666-24.049 8.205zm79.674-.342c-4.833 5.231-7.249 12.855-7.249 22.94v35.351c0 9.983 2.417 17.538 7.249 22.666 4.834 5.128 12.916 7.68 24.247 7.658 11.251 0 19.294-2.553 24.127-7.658 4.834-5.128 7.29-12.684 7.29-22.666v-35.351c0-9.983-2.456-17.641-7.369-22.905-4.913-5.265-12.915-7.898-24.048-7.898s-19.373 2.666-24.247 7.863zm33.16 8.479c1.731 3.276 2.519 6.865 2.298 10.461v43.281c.222 3.527-.553 7.047-2.259 10.256-.97 1.238-2.325 2.214-3.907 2.818a10.554 10.554 0 0 1-5.046.6c-1.719.207-3.471-.003-5.059-.607s-2.95-1.577-3.934-2.811c-1.742-3.2-2.532-6.726-2.297-10.256v-43.486c-.241-3.598.548-7.19 2.297-10.462 1.116-1.102 2.493-1.986 4.037-2.593 1.544-.605 3.221-.918 4.918-.918s3.373.313 4.918.918c1.544.606 2.921 1.491 4.035 2.593v.206zm45.519 79.104h20.599l15.488-65.224 15.849 65.224h20.049l2.025-94.144h-14.825l-1.583 65.429-15.29-65.429h-11.881l-15.849 65.669-1.466-65.669h-14.978l1.862 94.144zm97.108 0h32.093c18.479 0 27.729-8.911 27.729-26.732 0-17.069-9.74-25.593-29.196-25.57h-10.938v-41.842h-19.805l.116 94.144zm27.416-40.235a15.746 15.746 0 0 1 5.83.454c1.873.513 3.607 1.373 5.062 2.52 2.269 3.179 3.27 6.913 2.851 10.631a29.436 29.436 0 0 1-.943 8.546 6.974 6.974 0 0 1-1.466 2.583 8.069 8.069 0 0 1-2.502 1.896c-2.746 1.138-5.783 1.655-8.832 1.503h-7.692v-28.133h7.692zm60.974 40.235h21.271l21.83-94.144h-18.467l-4.317 21.708h-18.979l-4.433-21.708h-18.735l21.83 94.144zm18.176-61.532-7.401 39.517-7.412-39.517h14.813zm42.554 61.532h13.871l26.543-53.704v53.704h16.442v-94.144h-13.196l-26.705 56.063v-56.063h-16.989l.035 94.144zm95.36-58.247-22.063 58.115h18.583l13.463-37.331 12.637 37.331h18.188l-21.795-58.115v-35.895h-19.014v35.895zm-469.354-77.056v-4.923h-16.164v-38.255h-6.775v38.255h-16.244v4.923h39.183zm50.67-43.18h-5.229a2.326 2.326 0 0 0-1.466.41c-.396.25-.698.595-.872.991l-4.674 10.255h-22.424l-4.675-10.255a2.834 2.834 0 0 0-.712-1.162 2.42 2.42 0 0 0-1.466-.41h-5.229l19.809 43.176h6.893l20.047-43.005zm-32.804 16.033h18.701l-7.924 17.571a31.474 31.474 0 0 0-1.466 4.068c-.277-.82-.514-1.607-.753-2.291l-.712-1.812-7.845-17.536zm66.955-11.795a41.295 41.295 0 0 1 3.724 0c1.072.095 2.132.268 3.17.513.97.206 1.923.468 2.853.787.872.307 1.743.683 2.654 1.06v9.709h-7.924c-.195-.009-.392.016-.576.074s-.351.15-.493.268c-.13.097-.233.218-.301.354s-.101.284-.094.433v3.316h15.372V367.44a29.894 29.894 0 0 0-3.962-2.051 29.203 29.203 0 0 0-4.397-1.47 35.486 35.486 0 0 0-4.952-.889 59.703 59.703 0 0 0-5.784-.273 30.197 30.197 0 0 0-9.984 1.607c-2.966 1.029-5.661 2.563-7.923 4.513-2.206 1.969-3.942 4.291-5.111 6.838a21.577 21.577 0 0 0-1.822 8.958 22.364 22.364 0 0 0 1.783 9.026c1.139 2.559 2.879 4.887 5.111 6.838 2.261 1.943 4.957 3.466 7.923 4.479a33.247 33.247 0 0 0 10.618 1.607 39.71 39.71 0 0 0 5.506-.376 27.142 27.142 0 0 0 4.715-1.094 22.767 22.767 0 0 0 3.962-1.709 28.243 28.243 0 0 0 3.447-2.256l-1.901-2.667a1.66 1.66 0 0 0-.643-.592 2 2 0 0 0-.902-.228c-.439.012-.865.13-1.229.342-.593.273-1.228.614-1.941 1.025-.842.456-1.73.845-2.654 1.162a24.92 24.92 0 0 1-3.646.958 30.54 30.54 0 0 1-5.032.376 23.506 23.506 0 0 1-7.646-1.196c-2.204-.763-4.191-1.93-5.823-3.42-1.642-1.552-2.896-3.379-3.685-5.368a20.17 20.17 0 0 1 0-14.393c.867-2.031 2.217-3.883 3.962-5.437 1.624-1.481 3.597-2.647 5.784-3.419a22.294 22.294 0 0 1 7.844-.855zm63.149.688h21.632v-4.923h-28.241v43.178h6.772l-.163-38.255zm44.136-4.924h-6.772v43.178h6.772v-43.178zm25.205 42.972a3.31 3.31 0 0 0 1.024-.787l28.963-32.547a8.406 8.406 0 0 0 0 1.538v32.171h5.9v-43.351h-3.409a3.222 3.222 0 0 0-1.466.24 4.014 4.014 0 0 0-1.071.82l-28.916 32.513v-33.574h-5.667v43.18h3.526c.384 0 .768-.07 1.117-.205zm85.771.206v-4.752h-24.017v-14.256h19.456v-4.581h-19.456v-14.735h24.017v-4.751h-30.988v43.075h30.988zm-709.92 266.646 300.821-73.705V341.081l-300.821 73.671v258.31zm-19.295 22.016V402.206l339.37-83.174v292.837l-339.37 83.209zm181.887-512-339.409 83.244v292.841l339.409-83.209V183.078zM605.329 676.379l296.898-72.781-126.263-108.984-296.938 72.816 126.302 108.949zm-5.626 18.699L442.182 559.156l339.409-83.207L939.073 611.87l-339.37 83.208zm200.985-495.525 138.385 119.443-138.385 33.946V199.554z" glyph-name="Client-6" horiz-adv-x="1955" unicode=""/><glyph d="M684.124 257.478c2.857-3.183 4.378-7.169 4.298-11.261a16.27 16.27 0 0 0-1.53-7.794c-1.153-2.462-2.907-4.659-5.13-6.429-5.549-3.773-12.423-5.617-19.362-5.193h-34.036v71.359h33.339c6.582.393 13.111-1.282 18.472-4.742 2.153-1.622 3.857-3.672 4.98-5.989a14.904 14.904 0 0 0 1.486-7.361c.195-3.937-1.178-7.807-3.873-10.911-2.587-2.836-6.161-4.801-10.145-5.578 4.515-.741 8.591-2.903 11.5-6.1zm-39.923 10.772h14.25c3.238-.216 6.456.626 9.061 2.37 1.069.873 1.903 1.956 2.433 3.165s.745 2.511.626 3.806a7.982 7.982 0 0 1-.64 3.792 8.756 8.756 0 0 1-2.381 3.18c-2.683 1.794-6 2.648-9.331 2.405h-14.018v-18.719zm24.705-27.366c1.144.894 2.042 2.012 2.627 3.27s.838 2.621.741 3.981c.087 1.377-.178 2.752-.776 4.022s-1.51 2.398-2.671 3.299c-2.787 1.861-6.216 2.774-9.68 2.58H644.2V238.41h15.141c3.407-.177 6.781.696 9.564 2.475zm83.37-14.083-18.548 27.888h-6.97v-27.888h-15.953v71.359h30.203c7.614.478 15.14-1.693 21.027-6.066 4.222-3.873 6.768-8.976 7.18-14.39s-1.338-10.782-4.934-15.138c-3.727-3.842-8.817-6.405-14.405-7.251l19.748-28.515h-17.347zm-25.519 37.613h13.05c9.06 0 13.591 3.603 13.591 10.807a9.664 9.664 0 0 1-.73 4.324 10.572 10.572 0 0 1-2.601 3.695c-2.864 2.143-6.551 3.184-10.261 2.893h-13.205l.155-21.718zm112.721-23.253h-31.791l-5.616-14.362h-16.727l29.197 70.557h18.083l29.08-70.557h-16.728l-5.498 14.362zm-4.259 10.807-11.618 30.12-11.617-30.12h23.234zM948.636 226.8h-15.837l-35.508 48.526V226.8h-15.799v71.359h15.799l35.508-48.804v48.804h15.837V226.8zm90.378 17.081c-3.274-5.388-8.264-9.77-14.328-12.584-6.893-3.135-14.544-4.68-22.265-4.497h-28.19v71.359h28.19c7.707.182 15.348-1.327 22.265-4.393 6.063-2.75 11.057-7.089 14.328-12.445 3.259-5.803 4.958-12.216 4.958-18.719s-1.699-12.916-4.958-18.721zm-18.122 1.708c4.52 4.741 7.005 10.782 7.005 17.03s-2.486 12.288-7.005 17.029c-5.463 4.294-12.588 6.474-19.826 6.066H990.07v-46.189h10.996c7.238-.408 14.363 1.771 19.826 6.065zM849.391 695.078s204.415-69.477 200.078-170.014V355.016s-204.26 69.511-200 170.048l-.078 170.014zm382.19-300.249c38.609 23.919 83.258 38.733 129.873 43.087v53.232c-53.713-18.636-99.27-52.428-129.873-96.319zm-23.191-16.04c31.593 57.28 86.377 101.481 153.065 123.511v153.385s-291.115-98.968-284.958-242.139V171.441s12.972 4.428 33.379 12.724c0 7.738 0 15.547.93 23.391 6.025 66.467 41.124 128.058 97.585 171.233zm-27.695-89.938a227.735 227.735 0 0 0 10.193 49.571c-35.159-37.285-56.448-83.551-60.877-132.294-.426-4.602-.659-9.203-.775-13.945 16.535 7.147 35.784 16.071 55.997 26.563a225.82 225.82 0 0 0-4.538 70.104zm11.578-.873a216.227 216.227 0 0 1 3.607-63.48c79.535 42.843 168.902 109.043 165.457 189.047v6.973c-56.82-5.724-109.987-28.088-151.331-63.654-9.67-22.042-15.651-45.257-17.734-68.885z" glyph-name="Client-5" horiz-adv-x="1955" unicode=""/><glyph d="M652.546 523.428h-.034c-27.76 0-50.264-20.29-50.264-45.318v-.03c0-25.027 22.505-45.317 50.264-45.317h.034c27.76 0 50.264 20.289 50.264 45.317v.03c0 25.027-22.505 45.318-50.264 45.318zm371.005 14.486c-.078 34.764-15.427 68.083-42.688 92.667s-64.213 38.43-102.77 38.509c-38.569-.063-75.537-13.903-102.812-38.488-27.276-24.586-42.633-57.914-42.712-92.688v-191.7s290.95 29.217 290.982 191.671v.029zM500.364 283.295c.07-24.189 10.755-47.369 29.723-64.476S574.761 192.07 601.589 192c26.822.071 52.523 9.708 71.489 26.809s29.656 40.273 29.736 64.456v133.389s-202.449-20.345-202.449-133.359zm101.224-23.9c-5.243 0-10.368 1.402-14.727 4.029-4.359 2.625-7.757 6.358-9.763 10.725s-2.531 9.173-1.508 13.809c1.023 4.636 3.547 8.894 7.254 12.237s8.431 5.618 13.573 6.541c5.142.922 10.472.448 15.315-1.36s8.983-4.872 11.896-8.803c2.913-3.93 4.467-8.55 4.467-13.277.014-3.146-.662-6.264-1.989-9.174s-3.277-5.555-5.739-7.784c-2.463-2.228-5.39-3.997-8.612-5.204s-6.678-1.828-10.167-1.828v.09zm185.134 42.976v-49.636h-10.227v49.636h10.227zm19.772-21.205v-7.977h-22.568v7.977h22.568zm2.387 21.205v-8.012h-24.954v8.012h24.954zm46.705-23.659v-2.353c0-3.773-.512-7.159-1.535-10.159s-2.466-5.558-4.33-7.671a18.76 18.76 0 0 0-6.682-4.807c-2.568-1.114-5.42-1.67-8.556-1.67-3.114 0-5.966.556-8.557 1.67a19.19 19.19 0 0 0-6.682 4.807c-1.886 2.113-3.352 4.671-4.397 7.671-1.023 3-1.535 6.386-1.535 10.159v2.353c0 3.796.512 7.182 1.535 10.159 1.023 3 2.466 5.558 4.329 7.671a19.009 19.009 0 0 0 6.683 4.841c2.59 1.114 5.442 1.671 8.556 1.671 3.137 0 5.989-.557 8.557-1.671a18.617 18.617 0 0 0 6.682-4.841c1.886-2.113 3.341-4.671 4.364-7.671 1.045-2.977 1.569-6.363 1.569-10.159zm-10.33-2.353v2.42c0 2.637-.239 4.955-.717 6.955s-1.181 3.682-2.113 5.046-2.068 2.387-3.409 3.069c-1.341.704-2.874 1.057-4.602 1.057s-3.262-.353-4.602-1.057c-1.318-.682-2.442-1.705-3.375-3.069-.91-1.364-1.602-3.045-2.079-5.046-.478-2-.717-4.318-.717-6.955v-2.42c0-2.614.239-4.931.717-6.954.477-2 1.181-3.693 2.113-5.079.932-1.364 2.068-2.398 3.409-3.102 1.341-.705 2.874-1.058 4.602-1.058s3.262.353 4.602 1.058c1.341.704 2.466 1.738 3.375 3.102.91 1.386 1.602 3.079 2.079 5.079.478 2.022.717 4.34.717 6.954zm43.534-10.636c0 .886-.136 1.681-.41 2.385-.25.727-.727 1.387-1.431 1.978-.705.613-1.693 1.216-2.966 1.806s-2.921 1.206-4.943 1.841a62.456 62.456 0 0 0-6.409 2.455c-2 .909-3.773 1.965-5.318 3.17-1.523 1.228-2.728 2.648-3.614 4.262-.863 1.613-1.295 3.489-1.295 5.625 0 2.068.455 3.942 1.364 5.625.909 1.704 2.182 3.158 3.818 4.364 1.636 1.226 3.568 2.17 5.796 2.829 2.249.66 4.715.989 7.397.989 3.658 0 6.853-.66 9.579-1.977 2.728-1.318 4.842-3.126 6.342-5.421 1.522-2.295 2.283-4.92 2.283-7.874h-10.159c0 1.455-.307 2.728-.92 3.818-.591 1.114-1.5 1.989-2.728 2.625-1.204.637-2.728.954-4.568.954-1.772 0-3.25-.272-4.431-.818-1.182-.522-2.068-1.238-2.659-2.148-.591-.886-.887-1.886-.887-3 0-.84.205-1.602.613-2.284.432-.682 1.068-1.317 1.91-1.908s1.875-1.149 3.102-1.671c1.228-.522 2.647-1.033 4.261-1.534 2.704-.818 5.079-1.738 7.125-2.761 2.068-1.023 3.796-2.17 5.182-3.443s2.432-2.716 3.137-4.33c.704-1.614 1.057-3.443 1.057-5.489 0-2.159-.421-4.09-1.261-5.795-.841-1.705-2.057-3.148-3.648-4.33s-3.489-2.079-5.694-2.693c-2.204-.614-4.67-.92-7.397-.92-2.454 0-4.874.318-7.261.954-2.387.659-4.557 1.648-6.512 2.966-1.932 1.318-3.477 3-4.636 5.046s-1.738 4.466-1.738 7.261h10.261c0-1.545.239-2.852.716-3.92s1.147-1.932 2.012-2.591c.886-.659 1.932-1.136 3.136-1.431 1.228-.296 2.568-.443 4.023-.443 1.772 0 3.227.25 4.364.749 1.159.5 2.012 1.194 2.557 2.081.569.886.853 1.886.853 3zm39.375 36.648v-49.636h-10.193v49.636h10.193zm15.273 0v-8.012h-40.5v8.012h40.5zm39.135-41.659v-7.977h-26.42v7.977h26.42zm-23.079 41.659v-49.636h-10.227v49.636h10.227zm19.636-20.216v-7.773h-22.977v7.773h22.977zm3.41 20.216v-8.012h-26.387v8.012h26.387zm5.999 0h18.512c3.795 0 7.056-.568 9.784-1.705 2.75-1.137 4.863-2.818 6.341-5.046s2.216-4.966 2.216-8.215c0-2.66-.454-4.944-1.364-6.853a12.817 12.817 0 0 0-3.784-4.738c-1.613-1.251-3.511-2.25-5.693-3.001l-3.238-1.704h-16.091l-.069 7.977h11.966c1.795 0 3.284.319 4.466.954 1.182.637 2.068 1.523 2.659 2.66.614 1.136.92 2.454.92 3.954 0 1.591-.296 2.966-.886 4.125-.591 1.159-1.489 2.046-2.694 2.659s-2.716.92-4.534.92h-8.285v-41.624h-10.227v49.636zm27.751-49.636-11.319 22.124 10.808.069 11.454-21.716v-.477h-10.943zm53.693 17.693h-12.649v7.977h12.649c1.954 0 3.544.319 4.772.954 1.228.66 2.125 1.569 2.694 2.728s.852 2.466.852 3.92c0 1.478-.284 2.853-.852 4.125s-1.466 2.296-2.694 3.069-2.818 1.159-4.772 1.159h-9.103v-41.624h-10.227v49.636h19.33c3.885 0 7.216-.705 9.989-2.114 2.795-1.386 4.931-3.306 6.408-5.761 1.478-2.454 2.217-5.261 2.217-8.42 0-3.205-.739-5.978-2.217-8.318s-3.613-4.148-6.408-5.421c-2.773-1.272-6.103-1.908-9.989-1.908zm58.977-9.716v-7.977h-26.42v7.977h26.42zm-23.08 41.659v-49.636h-10.227v49.636h10.227zm19.637-20.216v-7.773h-22.977v7.773h22.977zm3.409 20.216v-8.012h-26.387v8.012h26.387zm28.875 0v-49.636h-10.192v49.636h10.192zm15.272 0v-8.012h-40.499v8.012h40.499zm39.134-41.659v-7.977h-26.415v7.977h26.415zm-23.075 41.659v-49.636h-10.228v49.636h10.228zm19.63-20.216v-7.773h-22.97v7.773h22.97zm3.41 20.216v-8.012h-26.38v8.012h26.38zm6.004 0h18.513c3.793 0 7.052-.568 9.786-1.705 2.746-1.137 4.864-2.818 6.342-5.046s2.211-4.966 2.211-8.215c0-2.66-.454-4.944-1.361-6.853a12.872 12.872 0 0 0-3.782-4.738c-1.617-1.251-3.514-2.25-5.702-3.001l-3.235-1.704h-16.093l-.07 7.977h11.974c1.792 0 3.281.319 4.457.954 1.187.637 2.071 1.523 2.665 2.66.617 1.136.919 2.454.919 3.954 0 1.591-.291 2.966-.884 4.125s-1.489 2.046-2.7 2.659c-1.199.613-2.711.92-4.527.92h-8.285v-41.624h-10.228v49.636zm27.753-49.636-11.322 22.124 10.81.069 11.45-21.716v-.477h-10.938zm42.81 12.988c0 .886-.128 1.681-.407 2.385-.244.727-.721 1.387-1.431 1.978-.698.613-1.687 1.216-2.967 1.806-1.268.591-2.921 1.206-4.934 1.841a62.158 62.158 0 0 0-6.412 2.455c-2.001.909-3.77 1.965-5.318 3.17-1.524 1.228-2.735 2.648-3.619 4.262-.861 1.613-1.292 3.489-1.292 5.625 0 2.068.454 3.942 1.361 5.625.908 1.704 2.188 3.158 3.817 4.364 1.641 1.226 3.572 2.17 5.795 2.829 2.257.66 4.724.989 7.401.989 3.654 0 6.854-.66 9.577-1.977 2.735-1.318 4.841-3.126 6.342-5.421 1.524-2.295 2.281-4.92 2.281-7.874h-10.159c0 1.455-.303 2.728-.919 3.818-.582 1.114-1.501 1.989-2.723 2.625-1.21.637-2.723.954-4.573.954-1.769 0-3.247-.272-4.433-.818-1.175-.522-2.06-1.238-2.653-2.148-.593-.886-.884-1.886-.884-3 0-.84.198-1.602.617-2.284.431-.682 1.059-1.317 1.908-1.908.838-.591 1.873-1.149 3.095-1.671a46.612 46.612 0 0 1 4.259-1.534c2.711-.818 5.085-1.738 7.133-2.761 2.06-1.023 3.793-2.17 5.178-3.443s2.432-2.716 3.142-4.33c.698-1.614 1.047-3.443 1.047-5.489 0-2.159-.419-4.09-1.257-5.795s-2.06-3.148-3.654-4.33c-1.583-1.181-3.479-2.079-5.69-2.693-2.199-.614-4.666-.92-7.401-.92-2.444 0-4.864.318-7.261.954-2.385.659-4.55 1.648-6.505 2.966a15.011 15.011 0 0 0-4.643 5.046c-1.152 2.046-1.734 4.466-1.734 7.261h10.263c0-1.545.233-2.852.71-3.92s1.152-1.932 2.013-2.591c.884-.659 1.932-1.136 3.142-1.431 1.222-.296 2.56-.443 4.015-.443 1.78 0 3.235.25 4.364.749 1.164.5 2.013 1.194 2.56 2.081.57.886.849 1.886.849 3z" glyph-name="Client-4" horiz-adv-x="1955" unicode=""/><glyph d="M800.696 201.038c.187-.003.372-.041.543-.106a1.44 1.44 0 0 0 .453-.278l2.569-2.416c-1.994-1.955-4.459-3.518-7.227-4.584a28.6 28.6 0 0 0-10.246-1.647 27.7 27.7 0 0 0-9.636 1.537c-2.755.984-5.231 2.463-7.26 4.337-2.069 1.943-3.664 4.219-4.689 6.697a21.977 21.977 0 0 0-1.637 8.591 20.518 20.518 0 0 0 1.766 8.619c1.122 2.493 2.815 4.77 4.978 6.697 2.193 1.891 4.817 3.376 7.709 4.365a30.714 30.714 0 0 0 9.926 1.537 27.158 27.158 0 0 0 9.218-1.4c2.544-.944 4.879-2.253 6.906-3.87l-2.153-2.58a2.079 2.079 0 0 0-.546-.467 1.486 1.486 0 0 0-.867-.193 2.12 2.12 0 0 0-.932.275l-1.157.687-1.606.879c-.694.326-1.413.61-2.152.851-.953.291-1.93.521-2.923.687a22.92 22.92 0 0 1-3.823.275 21.103 21.103 0 0 1-7.131-1.153c-2.111-.728-4.016-1.833-5.589-3.238-1.601-1.495-2.836-3.25-3.629-5.161a17.094 17.094 0 0 1-1.317-6.807 17.473 17.473 0 0 1 1.317-6.917c.783-1.893 1.994-3.638 3.565-5.133 1.471-1.394 3.294-2.482 5.332-3.184a19.418 19.418 0 0 1 6.616-1.098 28.644 28.644 0 0 1 3.919.22c2.118.221 4.15.849 5.943 1.84a19.421 19.421 0 0 1 2.537 1.701c.33.269.765.426 1.221.439zm74.197 12.137a20.647 20.647 0 0 0-1.734-8.535c-1.047-2.476-2.696-4.735-4.838-6.628-2.143-1.892-4.73-3.375-7.593-4.351-6.288-2.049-13.24-2.049-19.528 0-2.844.991-5.414 2.477-7.549 4.365-2.141 1.926-3.803 4.204-4.883 6.697-2.313 5.527-2.313 11.57 0 17.098 1.096 2.493 2.754 4.778 4.883 6.723 2.152 1.828 4.721 3.257 7.549 4.2 6.28 2.086 13.248 2.086 19.528 0 2.853-.99 5.435-2.476 7.581-4.364 2.114-1.908 3.763-4.157 4.85-6.614a20.807 20.807 0 0 0 1.734-8.591zm-6.745 0c.05 2.33-.363 4.65-1.221 6.862-.72 1.894-1.89 3.641-3.437 5.132-1.506 1.41-3.361 2.517-5.428 3.238a22.94 22.94 0 0 1-14.196 0c-2.069-.721-3.923-1.828-5.428-3.238-1.569-1.481-2.751-3.23-3.469-5.132a19.81 19.81 0 0 1 0-13.723c.725-1.899 1.906-3.647 3.469-5.133 1.508-1.402 3.362-2.498 5.428-3.212a23.522 23.522 0 0 1 14.196 0c2.067.713 3.92 1.809 5.428 3.212 1.541 1.494 2.71 3.241 3.437 5.133a17.736 17.736 0 0 1 1.221 6.861zm57.368-7.196.674-1.537c.257.549.482 1.043.739 1.537.246.515.524 1.019.835 1.509l16.413 25.494c.321.439.611.713.932.796a4.52 4.52 0 0 0 1.349.137h4.85v-41.466h-5.75v31.778a10.96 10.96 0 0 0 0 1.427l-16.51-25.85a2.367 2.367 0 0 0-.967-.944 2.938 2.938 0 0 0-1.41-.347h-.931c-.5-.006-.991.113-1.414.342s-.758.559-.963.948l-16.991 26.014v-33.286h-5.556v41.384h4.85c.455.022.912-.024 1.349-.137.398-.169.716-.45.899-.796l16.767-25.522c.329-.471.609-.967.835-1.481zm61.768 2.059v-15.531h-6.424v41.409h14.326c2.704.044 5.4-.261 7.998-.905 2.079-.504 4.008-1.384 5.654-2.58 1.427-1.122 2.526-2.512 3.212-4.061a12.264 12.264 0 0 0 1.091-5.297 11.7 11.7 0 0 0-1.188-5.296c-.771-1.59-1.958-3.007-3.469-4.144-1.648-1.246-3.585-2.182-5.686-2.745a27.598 27.598 0 0 0-7.741-.96l-7.773.109zm0 4.447h7.773a18.24 18.24 0 0 1 4.978.631c1.328.382 2.552.989 3.598 1.784.965.76 1.712 1.698 2.184 2.744a7.823 7.823 0 0 1 .77 3.485 6.883 6.883 0 0 1-.643 3.373c-.499 1.072-1.266 2.036-2.247 2.829-2.454 1.637-5.537 2.43-8.64 2.223h-7.773v-17.068zm86.339-20.035h-5.076a2.449 2.449 0 0 0-1.413.385 2.61 2.61 0 0 0-.835.96l-4.368 10.018h-21.938l-4.529-10.018a2.27 2.27 0 0 0-.803-.933 2.446 2.446 0 0 0-1.445-.412h-5.076l19.272 41.47h6.682l19.529-41.47zm-31.8 15.398h18.117l-7.645 16.879a27.166 27.166 0 0 0-1.445 3.897l-.739-2.168a19.513 19.513 0 0 0-.706-1.756l-7.581-16.852zm59.553 25.88c.384-.18.714-.434.963-.741l28.105-31.26v32.194h5.75v-41.47h-3.212a3.158 3.158 0 0 0-1.317.247c-.397.198-.746.46-1.027.769l-28.073 31.232c.03-.476.03-.952 0-1.427V192.45h-5.75v41.47h3.405c.397.009.791-.057 1.155-.192zm82.159-24.783v-16.467h-6.423v16.467l-17.759 24.975h5.751c.5.024.989-.101 1.385-.357a3.57 3.57 0 0 0 .861-.933l11.113-16.109c.454-.687.838-1.317 1.164-1.921.314-.604.57-1.18.803-1.757l.826 1.784c.314.653.687 1.286 1.094 1.894l10.961 16.22c.221.323.5.619.826.877.384.285.884.432 1.385.412h5.818l-17.804-25.085zm-261.2 94.566c2.794-.301 5.62-.549 8.479-.768 43.341 16.564 80.005 43.677 105.41 77.947s38.424 74.178 37.43 114.736l-47.763 40.81c9.712-43.181 5.169-87.82-13.12-128.92s-49.602-77.042-90.437-103.805zm-17.055 1.898 1.285-.22c43.635 26.667 76.904 63.906 95.502 106.9 18.6 42.995 21.673 89.768 8.825 134.271l-68.031 58.125c27.517-47.778 38.592-101.247 31.939-154.191s-30.761-103.187-69.52-144.884zm230.721 142.098c-11.558-44.563-39.629-84.752-80.044-114.603-11.804-8.766-24.535-16.575-38.031-23.326 32.91 8.264 63.159 22.876 88.414 42.708 25.256 19.831 44.843 44.353 57.252 71.675l-27.591 23.546zm-10.825 6.563-39.283 33.564c-.751-38.266-13.483-75.663-36.874-108.302s-56.586-59.331-96.136-77.3h.193c8.813.003 17.619.453 26.37 1.345 36.962 12.89 69.613 33.396 95.042 59.691s42.843 57.558 50.688 91.002zm-214.21 174.925-46.864 40.095c-41.894-13.832-77.925-38.149-103.377-69.766-25.451-31.618-39.139-69.065-39.269-107.439.157-42.403 16.861-83.549 47.468-116.927s73.37-57.082 121.517-67.359c42.982 44.743 68.147 100.03 71.838 157.827s-14.284 115.095-51.313 163.568zm322.489-168.751c-.175 50.307-23.633 98.513-65.268 134.087-41.638 35.574-98.06 55.622-156.941 55.767-27.208.024-54.186-4.266-79.562-12.651l286.935-245.154c9.821 21.67 14.848 44.71 14.836 67.951z" glyph-name="Client-3" horiz-adv-x="1955" unicode=""/><glyph d="M955.504 704.762h-1.59c-2.442.148-4.886.207-7.33.266h-5.298c-4.622 0-9.332-.119-14.013-.355a7.199 7.199 0 0 1-1.059 0 329.017 329.017 0 0 1-122.369-31.218l-5.034-2.426V413.386l11.775 3.995c10.332 3.551 21.341 6.747 32.733 9.706a399.43 399.43 0 0 0 94.199 12.516v-33.85c-4.21-.03-8.301-.149-12.393-.356h-.972a376.58 376.58 0 0 1-72.474-11.126 368.1 368.1 0 0 1-86.338-33.644v330.434a345.958 345.958 0 0 0 90.577 36.84 346.663 346.663 0 0 0 85.367 11.008h4.975c5.946-.148 11.746-.414 17.192-.829a245.425 245.425 0 0 0 42.536-6.776v-33.318a263.454 263.454 0 0 1-41.211 6.214l-.845.071c-2.872.246-5.747.491-8.428.491zm58.638-34.058c7.388-.562 15.042-.829 22.784-.829a366.167 366.167 0 0 1 89.752 11.511 369.685 369.685 0 0 1 86.308 33.673V390.514a346.877 346.877 0 0 0-90.605-36.84 348.445 348.445 0 0 0-85.367-10.979 260.682 260.682 0 0 0-64.761 7.635v326.647c5.004-1.154 10.155-2.219 15.395-3.107 8.596-1.45 17.663-2.515 26.494-3.166zm165.169-2.515-11.776-3.966a517.14 517.14 0 0 0-32.732-9.794 398.681 398.681 0 0 0-97.819-12.546c-7.682 0-14.747.207-21.576.652l-9.391.621v-265.04l8.065-.71c7.478-.652 15.19-.976 22.961-.976a312.788 312.788 0 0 1 77.036 9.971 322.857 322.857 0 0 1 60.193 21.631l5.039 2.426v257.731zM788.214 247.71c-1.692 1.756-3.733 3.135-5.989 4.047s-4.679 1.338-7.11 1.25a19.456 19.456 0 0 1-7.565-1.421 17.465 17.465 0 0 1-5.888-3.876 17.02 17.02 0 0 1-3.797-5.918 19.18 19.18 0 0 1-1.354-7.309v-44.148a20.816 20.816 0 0 1 1.737-9.054 17.731 17.731 0 0 1 4.415-5.918 15.466 15.466 0 0 1 6.065-3.137 24.622 24.622 0 0 1 6.593-.917 16.536 16.536 0 0 1 7.124 1.538 18.622 18.622 0 0 1 5.888 4.084 19.19 19.19 0 0 1 3.855 5.918 17.847 17.847 0 0 1 1.414 7.042v4.941h-11.54v-3.935a10.225 10.225 0 0 0-.677-3.935 7.078 7.078 0 0 0-1.678-2.486 7.041 7.041 0 0 0-2.413-1.272 8.127 8.127 0 0 0-2.413-.414 5.855 5.855 0 0 0-3.025.451 5.884 5.884 0 0 0-2.391 1.915 10.45 10.45 0 0 0-1.53 5.918v41.16a14.045 14.045 0 0 0 1.413 6.598c.599.932 1.446 1.676 2.446 2.147s2.11.65 3.206.517c.995.035 1.983-.172 2.88-.605s1.677-1.079 2.271-1.88a9.373 9.373 0 0 0 1.913-5.918v-3.817h11.422v4.497a20.826 20.826 0 0 1-1.414 7.723 18.164 18.164 0 0 1-3.856 6.214zm68.559.504a20.537 20.537 0 0 1-13.128 4.852 20.18 20.18 0 0 1-6.889-1.243 18.681 18.681 0 0 1-6.093-3.61 18.146 18.146 0 0 1-4.475-6.185 20.617 20.617 0 0 1-1.678-8.552v-42.344a20.425 20.425 0 0 1 1.678-8.67 17.198 17.198 0 0 1 4.475-5.917 18.027 18.027 0 0 1 6.093-3.729 20.223 20.223 0 0 1 6.889-1.243c2.351.005 4.682.426 6.888 1.243 2.297.835 4.414 2.1 6.241 3.729a18.076 18.076 0 0 1 4.357 5.917 20.41 20.41 0 0 1 1.678 8.67v42.344a20.592 20.592 0 0 1-1.678 8.552 19.096 19.096 0 0 1-4.357 6.185zm-5.387-57.08a7.593 7.593 0 0 0-2.296-6.126c-1.524-1.278-3.447-1.978-5.432-1.978s-3.906.701-5.431 1.978a7.606 7.606 0 0 0-2.296 6.126v42.344a7.593 7.593 0 0 0 2.296 6.126c1.524 1.278 3.446 1.978 5.431 1.978s3.907-.701 5.432-1.978a7.597 7.597 0 0 0 2.296-6.126v-42.344zm95.433-18.909v80.159h-11.098l-14.571-42.432h-.206l-14.69 42.432h-10.98v-80.159h11.451v48.765h.206l11.215-34.473h5.711l11.304 34.473h.206v-48.765h11.451zm65.057 74.539a15.897 15.897 0 0 1-6.477 4.38 25.395 25.395 0 0 1-8.301 1.243h-17.014v-80.161h11.421v31.306h5.887c3.564-.162 7.11.592 10.303 2.19a16.645 16.645 0 0 1 6.271 6.125 19.18 19.18 0 0 1 2.619 6.983c.449 3.016.656 6.065.618 9.114a45.64 45.64 0 0 1-1.118 11.451 17.06 17.06 0 0 1-4.209 7.368zm-5.888-24.441a10.095 10.095 0 0 0-1.06-4.173 6.427 6.427 0 0 0-2.943-2.81 11.705 11.705 0 0 0-5.388-1.007h-5.21v27.252h5.887c1.773.087 3.54-.258 5.151-1.005a6.473 6.473 0 0 0 2.679-2.959 11.69 11.69 0 0 0 1.001-4.468v-5.326c0-1.864.118-3.788 0-5.504h-.118zm59.993 30.062h-9.361l-17.662-80.159h11.421l3.356 17.222h15.572l3.356-17.222h11.422l-18.104 80.159zm-10.54-52.02 5.623 29.057h.206l5.594-29.057h-11.422zm84.337 3.729h-.206l-17.25 48.291h-10.98v-80.159h11.421v48.202h.236l17.456-48.202h10.744v80.159h-11.421v-48.291zm69.799 48.291-9.193-31.869h-.233l-9.181 31.869h-12.102l15.686-46.279v-33.88h11.427v33.88l15.686 46.279h-12.09zM756.364 149.591h5.505v-15.446h3.738v15.446h5.476v3.166h-14.719v-3.166zm46.274 3.167-7.212-18.612h3.974l1.531 4.231h7.418l1.59-4.231h4.062l-7.389 18.612h-3.974zm-.589-11.245 2.532 6.895 2.531-6.895h-5.063zm46.334-.505h4.298v-2.397a7.133 7.133 0 0 0-4.416-1.569 4.696 4.696 0 0 0-3.944 1.776 7.79 7.79 0 0 0-1.384 4.852c0 4.143 1.795 6.214 5.357 6.214a3.93 3.93 0 0 0 2.65-.696 3.96 3.96 0 0 0 1.56-2.262l3.679.71c-.795 3.64-3.414 5.474-7.889 5.474a9.363 9.363 0 0 1-6.505-2.397c-.938-.925-1.664-2.046-2.126-3.283s-.652-2.56-.553-3.877a10.148 10.148 0 0 1 2.384-6.984 9.021 9.021 0 0 1 7.065-2.722 11.18 11.18 0 0 1 7.889 2.959v7.338h-8.066v-3.136zm46.716 11.75h-3.768v-18.612h13.04v3.166h-9.272v15.446zm39.505 0h-3.768v-18.612h3.768v18.612zm38.621-12.429-7.624 12.429h-3.65v-18.612h3.503v12.161l7.478-12.161h3.739v18.612h-3.444v-12.429zm34.912 2.013h9.273v3.166h-9.273v4.083h9.979v3.166h-13.747v-18.612h14.13v3.166h-10.362v5.03zm84.66 3.076h-7.33v7.339h-3.738v-18.612h3.738v8.137h7.33v-8.137h3.739v18.612h-3.739v-7.339zm35.118-3.076h9.302v3.166h-9.302v4.083h10.008v3.166h-13.747v-18.612h14.1v3.166h-10.361v5.03zm47.625-.001c3.247.503 4.887 2.219 4.887 5.178a4.422 4.422 0 0 1-.349 2.323 4.329 4.329 0 0 1-1.478 1.82 10.515 10.515 0 0 1-5.446 1.095h-7.889v-18.612h3.747v7.782h.733a5.043 5.043 0 0 0 2.327-.414 3.921 3.921 0 0 0 1.327-1.361l4.061-5.918h4.468l-2.269 3.64a12.916 12.916 0 0 1-4.119 4.468zm-3.77 2.574h-2.758v4.675h2.944a9.75 9.75 0 0 0 3.793-.443c.268-.241.489-.54.628-.875s.209-.698.186-1.062a2.487 2.487 0 0 0-.279-1.039 2.484 2.484 0 0 0-.71-.811 10.658 10.658 0 0 0-3.805-.445zm39.692-2.573h9.263v3.166h-9.263v4.083h10.007v3.166h-13.777v-18.612h14.127v3.166h-10.356v5.03z" glyph-name="Client-2" horiz-adv-x="1955" unicode=""/><glyph d="m814.545 692.364 81.545-77.689-151.363.09V237.838h395.636v144.118l81.455-77.603v388.012H814.545zm322.239-301.291L905.572 611.352h231.212V391.073zm-71.788-98.101H807.332v253.503h18.213V310.138h239.451v-17.166zm-206.28-124.956-9.602 19.745h-7.926l13.919-26.136v-15.227h7.188v15.227l13.921 26.136h-7.898l-9.602-19.745zm35.398 19.745h1.705l15.624-41.364h-7.5l-3.347 9.687h-16.013l-3.34-9.687h-7.472l15.568 41.364h4.773zm-7.581-26.024h12.11l-6.061 17.548-6.049-17.548zm49.986 6.854c-.312.397-.612.782-.899 1.158-1.061 1.402-1.885 2.755-2.472 4.062a9.997 9.997 0 0 0-.881 4.091c0 2.159.445 4.015 1.335 5.568s2.15 2.746 3.779 3.579c1.628.853 3.532 1.279 5.71 1.279 2.102 0 3.911-.426 5.426-1.279 1.534-.833 2.708-1.941 3.522-3.323a8.64 8.64 0 0 0 1.25-4.545c0-1.307-.236-2.501-.71-3.581a10.415 10.415 0 0 0-1.961-2.954 20.145 20.145 0 0 0-2.897-2.529l-2.873-2.091 8.191-9.666c.27.531.514 1.089.733 1.672.702 1.819 1.052 3.835 1.052 6.052h5.909c0-2.008-.199-3.911-.597-5.711a17.715 17.715 0 0 0-1.847-4.999 14.833 14.833 0 0 0-1.173-1.826l6.059-7.152h-7.926l-2.404 2.828a16.12 16.12 0 0 0-4.244-2.317c-2.007-.719-4.147-1.08-6.42-1.08-2.747 0-5.123.503-7.131 1.506-2.008 1.004-3.561 2.387-4.659 4.148-1.08 1.762-1.62 3.778-1.62 6.051 0 1.686.35 3.163 1.051 4.432.702 1.287 1.658 2.481 2.87 3.579a40.84 40.84 0 0 0 3.826 3.046zm3.394-4.156-.856-.623c-1.004-.815-1.752-1.601-2.245-2.359-.474-.739-.785-1.421-.937-2.046s-.228-1.174-.228-1.648c0-1.211.256-2.31.767-3.295.531-.984 1.297-1.77 2.302-2.358 1.023-.568 2.263-.852 3.721-.852 1.572 0 3.096.35 4.574 1.051.74.361 1.443.795 2.106 1.303l-9.204 10.825zm1.635 7.555 2.537 1.708c1.194.795 2.046 1.572 2.558 2.33.511.776.767 1.742.767 2.897 0 .984-.379 1.893-1.137 2.728-.758.833-1.828 1.25-3.21 1.25-.966 0-1.78-.227-2.442-.682a4.132 4.132 0 0 1-1.506-1.762c-.322-.719-.483-1.524-.483-2.415 0-.852.218-1.733.653-2.641.436-.89 1.032-1.828 1.79-2.813.155-.198.313-.397.475-.6zm72.367-12.127h-7.103c-.208-1.799-.643-3.323-1.307-4.574-.643-1.231-1.6-2.168-2.868-2.813-1.251-.643-2.888-.966-4.915-.966-1.666 0-3.096.332-4.29.995s-2.177 1.6-2.954 2.813c-.758 1.211-1.325 2.661-1.704 4.346-.361 1.705-.54 3.599-.54 5.682v3.494c0 2.197.199 4.147.596 5.852.417 1.723 1.032 3.172 1.847 4.347s1.828 2.064 3.041 2.669c1.211.606 2.632.91 4.261.91 1.989 0 3.598-.341 4.829-1.023a6.448 6.448 0 0 0 2.785-2.897c.643-1.27 1.06-2.794 1.25-4.574h7.102c-.284 2.765-1.06 5.218-2.33 7.358-1.25 2.14-3.01 3.817-5.284 5.028-2.273 1.213-5.056 1.819-8.351 1.819-2.595 0-4.934-.455-7.018-1.364a14.739 14.739 0 0 1-5.312-3.949c-1.478-1.704-2.614-3.759-3.409-6.164-.776-2.405-1.165-5.096-1.165-8.069v-3.437c0-2.973.379-5.663 1.137-8.069.776-2.405 1.894-4.46 3.352-6.165a15.139 15.139 0 0 1 5.255-3.92c2.046-.909 4.347-1.364 6.904-1.364 3.334 0 6.165.606 8.495 1.819s4.138 2.87 5.426 4.971c1.288 2.121 2.046 4.537 2.273 7.245zm39.46 6.08v2.273c0 3.124-.417 5.918-1.25 8.381-.815 2.481-1.979 4.593-3.494 6.335a14.849 14.849 0 0 1-5.426 4.006c-2.103.927-4.432 1.392-6.989 1.392-2.538 0-4.858-.464-6.96-1.392-2.084-.91-3.892-2.245-5.426-4.006-1.516-1.742-2.69-3.854-3.523-6.335-.833-2.462-1.25-5.256-1.25-8.381v-2.273c0-3.126.417-5.929 1.25-8.41.853-2.481 2.046-4.593 3.579-6.335a15.638 15.638 0 0 1 5.426-4.006c2.103-.909 4.423-1.364 6.961-1.364 2.557 0 4.886.455 6.989 1.364a15.02 15.02 0 0 1 5.397 4.006c1.515 1.742 2.68 3.854 3.494 6.335s1.222 5.284 1.222 8.41zm-7.131 2.329v-2.33c0-2.311-.227-4.357-.682-6.137-.435-1.78-1.079-3.286-1.932-4.517-.852-1.211-1.893-2.131-3.124-2.755-1.231-.606-2.643-.909-4.233-.909-1.572 0-2.973.303-4.204.909-1.231.625-2.292 1.544-3.183 2.755-.87 1.231-1.534 2.737-1.989 4.517s-.682 3.826-.682 6.137v2.33c0 2.31.228 4.346.682 6.108.455 1.78 1.108 3.266 1.961 4.46.87 1.211 1.922 2.121 3.153 2.726 1.231.625 2.632.938 4.204.938s2.984-.313 4.233-.938c1.25-.605 2.301-1.515 3.153-2.726.87-1.194 1.524-2.68 1.96-4.46.455-1.762.682-3.798.682-6.108z" glyph-name="Client-1" horiz-adv-x="1955" unicode=""/></font>
</defs>
</svg>
